<svg width="6" height="9" viewBox="0 0 6 9" fill="none" xmlns="http://www.w3.org/2000/svg">
<path d="M2.82913 8.05C2.77047 8.05 2.72247 8.03133 2.68513 7.994C2.6478 7.95667 2.62913 7.90867 2.62913 7.85V7.298C2.21847 7.24467 1.87447 7.14067 1.59713 6.986C1.32513 6.83133 1.1198 6.64467 0.981133 6.426C0.842466 6.202 0.7678 5.96733 0.757133 5.722C0.757133 5.67933 0.773133 5.642 0.805133 5.61C0.842466 5.57267 0.885133 5.554 0.933133 5.554H1.94113C2.0158 5.554 2.0718 5.56733 2.10913 5.594C2.14647 5.62067 2.1838 5.65533 2.22113 5.698C2.2638 5.778 2.32247 5.85533 2.39713 5.93C2.47713 6.00467 2.57847 6.066 2.70113 6.114C2.82913 6.15667 2.98647 6.178 3.17313 6.178C3.48247 6.178 3.71447 6.13 3.86913 6.034C4.02913 5.938 4.10913 5.80733 4.10913 5.642C4.10913 5.52467 4.06647 5.42867 3.98113 5.354C3.8958 5.274 3.75713 5.20467 3.56513 5.146C3.37847 5.082 3.1278 5.018 2.81313 4.954C2.4078 4.86867 2.06113 4.75933 1.77313 4.626C1.49047 4.48733 1.27447 4.30867 1.12513 4.09C0.9758 3.866 0.901133 3.58867 0.901133 3.258C0.901133 2.83133 1.05313 2.46867 1.35713 2.17C1.66647 1.87133 2.09047 1.68467 2.62913 1.61V1.05C2.62913 0.991333 2.6478 0.943333 2.68513 0.906C2.72247 0.868666 2.77047 0.85 2.82913 0.85H3.49313C3.54647 0.85 3.5918 0.868666 3.62913 0.906C3.6718 0.943333 3.69313 0.991333 3.69313 1.05V1.626C4.06113 1.69 4.37047 1.80467 4.62113 1.97C4.8718 2.13533 5.06113 2.322 5.18913 2.53C5.32247 2.738 5.3918 2.938 5.39713 3.13C5.39713 3.17267 5.38113 3.21267 5.34913 3.25C5.31713 3.282 5.27713 3.298 5.22913 3.298H4.17313C4.11447 3.298 4.0638 3.28733 4.02113 3.266C3.97847 3.24467 3.94113 3.21 3.90913 3.162C3.87713 3.04467 3.7918 2.94333 3.65313 2.858C3.51447 2.76733 3.3358 2.722 3.11713 2.722C2.8878 2.722 2.70647 2.76467 2.57313 2.85C2.4398 2.93 2.37313 3.05533 2.37313 3.226C2.37313 3.33267 2.4078 3.426 2.47713 3.506C2.5518 3.586 2.67447 3.65533 2.84513 3.714C3.0158 3.77267 3.2478 3.834 3.54113 3.898C4.02647 3.98867 4.41847 4.10333 4.71713 4.242C5.0158 4.37533 5.23447 4.55133 5.37313 4.77C5.5118 4.98333 5.58113 5.25267 5.58113 5.578C5.58113 5.89267 5.50113 6.17 5.34113 6.41C5.18647 6.65 4.9678 6.84467 4.68513 6.994C4.40247 7.14333 4.0718 7.242 3.69313 7.29V7.85C3.69313 7.90867 3.6718 7.95667 3.62913 7.994C3.5918 8.03133 3.54647 8.05 3.49313 8.05H2.82913Z" fill="#FF7A50"/>
</svg>
